<svg width="94" height="25" viewBox="0 0 94 25" fill="none" xmlns="http://www.w3.org/2000/svg">
<path d="M0.272727 4.26136V0.727272H18.8409V4.26136H11.6477V24H7.46591V4.26136H0.272727ZM27.321 24.3409C25.6165 24.3409 24.1392 23.9659 22.8892 23.2159C21.6392 22.4659 20.6695 21.4167 19.9801 20.0682C19.2983 18.7197 18.9574 17.1439 18.9574 15.3409C18.9574 13.5379 19.2983 11.9583 19.9801 10.6023C20.6695 9.24621 21.6392 8.19318 22.8892 7.44318C24.1392 6.69318 25.6165 6.31818 27.321 6.31818C29.0256 6.31818 30.5028 6.69318 31.7528 7.44318C33.0028 8.19318 33.9688 9.24621 34.6506 10.6023C35.34 11.9583 35.6847 13.5379 35.6847 15.3409C35.6847 17.1439 35.34 18.7197 34.6506 20.0682C33.9688 21.4167 33.0028 22.4659 31.7528 23.2159C30.5028 23.9659 29.0256 24.3409 27.321 24.3409ZM27.3438 21.0455C28.268 21.0455 29.0407 20.7917 29.6619 20.2841C30.2831 19.7689 30.7453 19.0795 31.0483 18.2159C31.3589 17.3523 31.5142 16.3902 31.5142 15.3295C31.5142 14.2614 31.3589 13.2955 31.0483 12.4318C30.7453 11.5606 30.2831 10.8674 29.6619 10.3523C29.0407 9.83712 28.268 9.57955 27.3438 9.57955C26.3968 9.57955 25.6089 9.83712 24.9801 10.3523C24.3589 10.8674 23.893 11.5606 23.5824 12.4318C23.2794 13.2955 23.1278 14.2614 23.1278 15.3295C23.1278 16.3902 23.2794 17.3523 23.5824 18.2159C23.893 19.0795 24.3589 19.7689 24.9801 20.2841C25.6089 20.7917 26.3968 21.0455 27.3438 21.0455Z" fill="#FF6767"/>
<path d="M49.7557 12.6136V16H39.2784V12.6136H49.7557ZM62.1506 24H54.2642V0.727272H62.3097C64.6203 0.727272 66.6051 1.19318 68.2642 2.125C69.9309 3.04924 71.2112 4.37879 72.1051 6.11364C72.9991 7.84848 73.446 9.92424 73.446 12.3409C73.446 14.7652 72.9953 16.8485 72.0938 18.5909C71.1998 20.3333 69.9081 21.6705 68.2188 22.6023C66.5369 23.5341 64.5142 24 62.1506 24ZM58.4801 20.3523H61.946C63.5672 20.3523 64.9195 20.0568 66.0028 19.4659C67.0862 18.8674 67.9006 17.9773 68.446 16.7955C68.9915 15.6061 69.2642 14.1212 69.2642 12.3409C69.2642 10.5606 68.9915 9.08333 68.446 7.90909C67.9006 6.72727 67.0938 5.8447 66.0256 5.26136C64.965 4.67045 63.6468 4.375 62.071 4.375H58.4801V20.3523ZM84.8835 24.3409C83.179 24.3409 81.7017 23.9659 80.4517 23.2159C79.2017 22.4659 78.232 21.4167 77.5426 20.0682C76.8608 18.7197 76.5199 17.1439 76.5199 15.3409C76.5199 13.5379 76.8608 11.9583 77.5426 10.6023C78.232 9.24621 79.2017 8.19318 80.4517 7.44318C81.7017 6.69318 83.179 6.31818 84.8835 6.31818C86.5881 6.31818 88.0653 6.69318 89.3153 7.44318C90.5653 8.19318 91.5313 9.24621 92.2131 10.6023C92.9025 11.9583 93.2472 13.5379 93.2472 15.3409C93.2472 17.1439 92.9025 18.7197 92.2131 20.0682C91.5313 21.4167 90.5653 22.4659 89.3153 23.2159C88.0653 23.9659 86.5881 24.3409 84.8835 24.3409ZM84.9062 21.0455C85.8305 21.0455 86.6032 20.7917 87.2244 20.2841C87.8456 19.7689 88.3078 19.0795 88.6108 18.2159C88.9214 17.3523 89.0767 16.3902 89.0767 15.3295C89.0767 14.2614 88.9214 13.2955 88.6108 12.4318C88.3078 11.5606 87.8456 10.8674 87.2244 10.3523C86.6032 9.83712 85.8305 9.57955 84.9062 9.57955C83.9593 9.57955 83.1714 9.83712 82.5426 10.3523C81.9214 10.8674 81.4555 11.5606 81.1449 12.4318C80.8419 13.2955 80.6903 14.2614 80.6903 15.3295C80.6903 16.3902 80.8419 17.3523 81.1449 18.2159C81.4555 19.0795 81.9214 19.7689 82.5426 20.2841C83.1714 20.7917 83.9593 21.0455 84.9062 21.0455Z" fill="black"/>
</svg>
